<?xml version="1.0" encoding="utf-8"?>
<!-- Generator: Adobe Illustrator 16.0.0, SVG Export Plug-In . SVG Version: 6.00 Build 0)  -->
<!DOCTYPE svg PUBLIC "-//W3C//DTD SVG 1.1//EN" "http://www.w3.org/Graphics/SVG/1.1/DTD/svg11.dtd">
<svg version="1.1" id="Capa_1" xmlns="http://www.w3.org/2000/svg" xmlns:xlink="http://www.w3.org/1999/xlink" x="0px" y="0px"
	 width="612px" height="612px" viewBox="0 90 612 612" enable-background="new 0 90 612 612" xml:space="preserve">
<g>
	<g id="c142_x">
		<path fill="#AAAFB1" d="M305.945,90C136.975,90,0,227.019,0,396.011C0,564.981,136.975,702,305.945,702
			C475.004,702,612,564.959,612,396.011C612,227.019,475.004,90,305.945,90z M437.515,478.865l-48.737,48.671
			c0,0-77.099-82.724-82.854-82.724c-5.668,0-82.789,82.724-82.789,82.724l-48.759-48.671c0,0,82.811-75.982,82.811-82.745
			c0-6.872-82.811-82.877-82.811-82.877l48.759-48.78c0,0,77.756,82.768,82.789,82.768c5.077,0,82.854-82.768,82.854-82.768
			l48.737,48.78c0,0-82.833,77.1-82.833,82.877C354.682,401.614,437.515,478.865,437.515,478.865z"/>
	</g>
	<g id="Capa_1_104_">
	</g>
</g>
</svg>
