<svg id="svg25" xmlns="http://www.w3.org/2000/svg" viewBox="0 0 313.16 81.62"><defs><style>.cls-1{fill:#fff;}.cls-2{fill:#cfa55b;}</style></defs><title>logo</title><g id="Layer1000"><path id="path4" class="cls-1" d="M0,80.37V29.45H17.39A19.84,19.84,0,0,1,25.91,31a11.3,11.3,0,0,1,5,4.76,13.34,13.34,0,0,1,1.82,6.72,12.45,12.45,0,0,1-1.61,6.14,11.91,11.91,0,0,1-4.85,4.66,12,12,0,0,1,6.46,4.62A13.15,13.15,0,0,1,35,65.6a16.12,16.12,0,0,1-1.38,6.66A12.77,12.77,0,0,1,30.24,77a13.81,13.81,0,0,1-5.07,2.51,28.21,28.21,0,0,1-7.49.85ZM6.15,50.86h10A20.47,20.47,0,0,0,22,50.26a6.47,6.47,0,0,0,3.53-2.55,7.88,7.88,0,0,0,1.19-4.46,8.73,8.73,0,0,0-1.11-4.47,5.68,5.68,0,0,0-3.16-2.65,24.16,24.16,0,0,0-7-.71H6.15Zm0,23.54H17.69a23.84,23.84,0,0,0,4.19-.25,9.36,9.36,0,0,0,3.54-1.39,7.23,7.23,0,0,0,2.34-2.84,9.59,9.59,0,0,0,.92-4.3,9,9,0,0,0-1.34-5,7.06,7.06,0,0,0-3.69-3,20.8,20.8,0,0,0-6.77-.85H6.15Z"/><path id="path6" class="cls-1" d="M58.08,81.62a18.44,18.44,0,0,1-9.26-2.4,18.09,18.09,0,0,1-6.71-6.59,17.54,17.54,0,0,1-2.48-9.12,17.87,17.87,0,0,1,2.46-9.21,18.35,18.35,0,0,1,16-9.06,18.35,18.35,0,0,1,13.1,5.34,18.19,18.19,0,0,1,3.93,5.87,18,18,0,0,1,1.41,7.06A17.54,17.54,0,0,1,74,72.64a18.09,18.09,0,0,1-6.71,6.59,18.44,18.44,0,0,1-9.26,2.4Zm0-30.94a12.31,12.31,0,0,0-6.42,1.71A11.84,11.84,0,0,0,47.19,57a13.74,13.74,0,0,0,0,12.79,11.74,11.74,0,0,0,4.43,4.66,13.12,13.12,0,0,0,12.91,0A12,12,0,0,0,69,69.85,13.79,13.79,0,0,0,69,57a11.89,11.89,0,0,0-4.47-4.64,12.31,12.31,0,0,0-6.42-1.71Z"/><path id="path8" class="cls-1" d="M85.92,70.59a7.94,7.94,0,0,0,2.25,4.12,8.08,8.08,0,0,0,5.69,1.89q3.69,0,5.48-1.67A5.21,5.21,0,0,0,101.12,71a3.7,3.7,0,0,0-1.6-3.17,22.48,22.48,0,0,0-5.47-2A46.33,46.33,0,0,1,85.92,63a8.29,8.29,0,0,1-3.43-3.34,9.58,9.58,0,0,1-1.17-4.69,9.91,9.91,0,0,1,1-4.35,9.44,9.44,0,0,1,2.62-3.32,10.64,10.64,0,0,1,3.39-1.73,14.57,14.57,0,0,1,4.61-.71A16.34,16.34,0,0,1,99.4,46a8.9,8.9,0,0,1,4.14,3.23,10.16,10.16,0,0,1,.92,1.84l-4.92,2.18a5.92,5.92,0,0,0-1.46-2,6.9,6.9,0,0,0-4.81-1.54c-2.44,0-4.19.45-5.23,1.36a4.1,4.1,0,0,0-1.57,3.17,3.56,3.56,0,0,0,.65,2.09,4.76,4.76,0,0,0,2,1.58c.53.22,2.09.73,4.71,1.52a61.75,61.75,0,0,1,7.9,2.75,8.26,8.26,0,0,1,3.52,3.12,9.38,9.38,0,0,1,1.28,5.09A10.74,10.74,0,0,1,105,76,10.47,10.47,0,0,1,100.53,80a15,15,0,0,1-6.65,1.43q-6.14,0-9.37-2.83A12.42,12.42,0,0,1,80.9,72.5Z"/><path id="path10" class="cls-1" d="M184.1,80.54V27.48h6.7V49.34h26.08V27.48h6.7V80.54h-6.7v-25H190.79v25Z"/><path id="path12" class="cls-1" d="M256.2,76.09A21.56,21.56,0,0,1,250,80.16a17.09,17.09,0,0,1-6.42,1.19q-5.65,0-8.68-2.88a9.69,9.69,0,0,1-3-7.36A10.25,10.25,0,0,1,233,66.3a9.85,9.85,0,0,1,3-3.48,13.89,13.89,0,0,1,4.18-2,42.55,42.55,0,0,1,5.17-.91,50.61,50.61,0,0,0,10.37-2.09c0-.83,0-1.36,0-1.58q0-3.7-1.65-5.23Q251.86,49,247.46,49q-4.11,0-6.07,1.51a7.61,7.61,0,0,0-2.33,3.46l-5-2.85a11.9,11.9,0,0,1,1.34-2.28,11.26,11.26,0,0,1,5.15-3.62,22.07,22.07,0,0,1,7.8-1.27A19.74,19.74,0,0,1,255.47,45a9.41,9.41,0,0,1,4,2.72,10,10,0,0,1,1.81,4.15,36.58,36.58,0,0,1,.29,5.6v8.08A91.37,91.37,0,0,0,262,76.25a14.24,14.24,0,0,0,1.42,4.34h-6.08a14,14,0,0,1-1.12-4.5Zm-.46-13.5a40.89,40.89,0,0,1-9.51,2.28,21.19,21.19,0,0,0-5.09,1.21,5.14,5.14,0,0,0-2.29,2,5.33,5.33,0,0,0-.82,2.88,5.22,5.22,0,0,0,1.76,4A7.4,7.4,0,0,0,245,76.58a11.58,11.58,0,0,0,6-1.53,9.26,9.26,0,0,0,3.84-4.18,15.15,15.15,0,0,0,.93-6.06Z"/><path id="path14" class="cls-1" d="M273,80.54V15.79l6.2-3.45v68.2Z"/><path id="path16" class="cls-1" d="M290,80.54V4.9l6.2-4.9V80.54Z"/><path id="path18" class="cls-2" d="M307,79.79V28.23l6.2,3.62V79.79Z"/><path id="path20" class="cls-1" d="M117.36,70.59a7.94,7.94,0,0,0,2.25,4.12,8.08,8.08,0,0,0,5.69,1.89q3.69,0,5.48-1.67A5.21,5.21,0,0,0,132.56,71a3.7,3.7,0,0,0-1.6-3.17,22.48,22.48,0,0,0-5.47-2A46.33,46.33,0,0,1,117.36,63a8.29,8.29,0,0,1-3.43-3.34,9.58,9.58,0,0,1-1.17-4.69,9.91,9.91,0,0,1,1-4.35,9.44,9.44,0,0,1,2.62-3.32,10.64,10.64,0,0,1,3.39-1.73,14.57,14.57,0,0,1,4.61-.71,16.34,16.34,0,0,1,6.5,1.2A8.9,8.9,0,0,1,135,49.26a10.16,10.16,0,0,1,.92,1.84L131,53.28a5.92,5.92,0,0,0-1.46-2,6.9,6.9,0,0,0-4.81-1.54c-2.44,0-4.19.45-5.23,1.36a4.1,4.1,0,0,0-1.57,3.17,3.56,3.56,0,0,0,.65,2.09,4.76,4.76,0,0,0,2,1.58c.53.22,2.09.73,4.71,1.52a61.74,61.74,0,0,1,7.9,2.75,8.26,8.26,0,0,1,3.52,3.12A9.38,9.38,0,0,1,138,70.39,10.74,10.74,0,0,1,136.47,76,10.47,10.47,0,0,1,132,80a15,15,0,0,1-6.65,1.43q-6.14,0-9.37-2.83a12.42,12.42,0,0,1-3.62-6.14Z"/><path id="path22" class="cls-1" d="M164.94,77.1a12.31,12.31,0,0,1-3.88,2.95,10.59,10.59,0,0,1-4.55,1,9,9,0,0,1-7.15-3,8.24,8.24,0,0,1-2.14-5.52,7.62,7.62,0,0,1,1.75-4.9,14.63,14.63,0,0,1,5.23-3.84,17.42,17.42,0,0,1-2.66-3.7,6.42,6.42,0,0,1-.67-2.74,6.08,6.08,0,0,1,2.08-4.59,7.3,7.3,0,0,1,5.22-2,6.81,6.81,0,0,1,4.92,1.84A5.93,5.93,0,0,1,165,57q0,4.19-5.58,7.15l5.31,6.66a16.36,16.36,0,0,0,1.41-4.08l3.73.81a19.86,19.86,0,0,1-2.61,6.27,21.1,21.1,0,0,0,4.57,4.49l-2.42,2.85a21,21,0,0,1-4.48-4.1Zm-7.37-15.23a9.67,9.67,0,0,0,3-2.43,4.08,4.08,0,0,0,.7-2.31,3.33,3.33,0,0,0-1-2.46,3.24,3.24,0,0,0-2.38-1,3.38,3.38,0,0,0-2.44.94,3.1,3.1,0,0,0-1,2.31,3.33,3.33,0,0,0,.36,1.43A7.18,7.18,0,0,0,156,60Zm5.08,12.42-6.57-8.2a12.52,12.52,0,0,0-3.95,3.22,5.16,5.16,0,0,0-1,2.94,6.23,6.23,0,0,0,1.42,3.69,4.69,4.69,0,0,0,4,1.91,6.68,6.68,0,0,0,3.35-1,8,8,0,0,0,2.77-2.56Z"/></g></svg>